<svg width="11" height="8" viewBox="0 0 11 8" fill="none" xmlns="http://www.w3.org/2000/svg">
<path d="M4.95833 7.25H6.04167C6.33958 7.25 6.58333 7.00625 6.58333 6.70833C6.58333 6.41042 6.33958 6.16667 6.04167 6.16667H4.95833C4.66042 6.16667 4.41667 6.41042 4.41667 6.70833C4.41667 7.00625 4.66042 7.25 4.95833 7.25ZM0.625 1.29167C0.625 1.58958 0.86875 1.83333 1.16667 1.83333H9.83333C10.1313 1.83333 10.375 1.58958 10.375 1.29167C10.375 0.99375 10.1313 0.75 9.83333 0.75H1.16667C0.86875 0.75 0.625 0.99375 0.625 1.29167ZM2.79167 4.54167H8.20833C8.50625 4.54167 8.75 4.29792 8.75 4C8.75 3.70208 8.50625 3.45833 8.20833 3.45833H2.79167C2.49375 3.45833 2.25 3.70208 2.25 4C2.25 4.29792 2.49375 4.54167 2.79167 4.54167Z" fill="#717475"/>
</svg>
