<svg width="13" height="14" viewBox="0 0 13 14" fill="none" xmlns="http://www.w3.org/2000/svg">
<path d="M9.75 7.54166H7.04167V10.25C7.04167 10.5479 6.79792 10.7917 6.5 10.7917C6.20209 10.7917 5.95834 10.5479 5.95834 10.25V7.54166H3.25C2.95209 7.54166 2.70834 7.29791 2.70834 7C2.70834 6.70208 2.95209 6.45833 3.25 6.45833H5.95834V3.74999C5.95834 3.45208 6.20209 3.20833 6.5 3.20833C6.79792 3.20833 7.04167 3.45208 7.04167 3.74999V6.45833H9.75C10.0479 6.45833 10.2917 6.70208 10.2917 7C10.2917 7.29791 10.0479 7.54166 9.75 7.54166Z" fill="white"/>
</svg>
