<svg width="14" height="14" viewBox="0 0 14 14" fill="none" xmlns="http://www.w3.org/2000/svg">
<path d="M9.62501 8.5H9.03251L8.82251 8.2975C9.72251 7.2475 10.1875 5.815 9.93251 4.2925C9.58001 2.2075 7.84001 0.542496 5.74001 0.287496C2.56751 -0.102504 -0.102489 2.5675 0.287511 5.74C0.542511 7.84 2.20751 9.58 4.29251 9.9325C5.81501 10.1875 7.24751 9.7225 8.29751 8.8225L8.50001 9.0325V9.625L11.6875 12.8125C11.995 13.12 12.4975 13.12 12.805 12.8125C13.1125 12.505 13.1125 12.0025 12.805 11.695L9.62501 8.5ZM5.12501 8.5C3.25751 8.5 1.75001 6.9925 1.75001 5.125C1.75001 3.2575 3.25751 1.75 5.12501 1.75C6.99251 1.75 8.50001 3.2575 8.50001 5.125C8.50001 6.9925 6.99251 8.5 5.12501 8.5Z" fill="#717475"/>
</svg>
