<svg width="14" height="18" viewBox="0 0 14 18" fill="none" xmlns="http://www.w3.org/2000/svg">
<path d="M1.5 15.4167C1.5 16.425 2.325 17.25 3.33333 17.25H10.6667C11.675 17.25 12.5 16.425 12.5 15.4167V6.25C12.5 5.24167 11.675 4.41667 10.6667 4.41667H3.33333C2.325 4.41667 1.5 5.24167 1.5 6.25V15.4167ZM12.5 1.66667H10.2083L9.5575 1.01583C9.3925 0.850833 9.15417 0.75 8.91583 0.75H5.08417C4.84583 0.75 4.6075 0.850833 4.4425 1.01583L3.79167 1.66667H1.5C0.995834 1.66667 0.583334 2.07917 0.583334 2.58333C0.583334 3.0875 0.995834 3.5 1.5 3.5H12.5C13.0042 3.5 13.4167 3.0875 13.4167 2.58333C13.4167 2.07917 13.0042 1.66667 12.5 1.66667Z" fill="#717475"/>
</svg>
